<?xml version="1.0" standalone="no"?>
<!--
  ~ Copyright (C) 2016 AptiTekk, LLC. (https://AptiTekk.com/) - All Rights Reserved
  ~ Unauthorized copying of any part of AptiBook, via any medium, is strictly prohibited.
  ~ Proprietary and confidential.
  -->

<!DOCTYPE svg PUBLIC "-//W3C//DTD SVG 20010904//EN"
 "http://www.w3.org/TR/2001/REC-SVG-20010904/DTD/svg10.dtd">
<svg version="1.0" xmlns="http://www.w3.org/2000/svg"
 width="700.000000pt" height="700.000000pt" viewBox="0 0 700.000000 700.000000"
 preserveAspectRatio="xMidYMid meet">
<metadata>
Created by potrace 1.11, written by Peter Selinger 2001-2013
</metadata>
<g transform="translate(0.000000,700.000000) scale(0.100000,-0.100000)"
fill="#000000" stroke="none">
<path d="M0 6301 l0 -698 133 -8 c173 -11 6574 -11 6740 0 l127 8 0 698 0 699
-3500 0 -3500 0 0 -699z m1465 198 c77 -22 145 -115 145 -199 0 -110 -100
-210 -210 -210 -110 0 -210 100 -210 210 0 109 98 208 205 210 17 0 48 -5 70
-11z m4200 0 c52 -15 119 -82 134 -134 23 -84 6 -153 -53 -211 -40 -41 -93
-64 -146 -64 -53 0 -106 23 -146 64 -82 82 -85 203 -6 288 57 60 132 80 217
57z"/>
<path d="M2122 4809 c-148 -19 -320 -75 -439 -142 -102 -58 -153 -97 -245
-185 -200 -193 -299 -411 -310 -682 l-3 -65 246 -3 246 -2 7 31 c3 17 6 48 6
68 0 53 37 177 73 246 38 72 162 200 231 238 220 121 565 128 787 16 81 -41
177 -136 218 -216 61 -121 76 -199 75 -383 0 -139 -4 -175 -21 -227 -33 -98
-86 -183 -160 -254 -77 -75 -128 -107 -228 -144 -119 -45 -194 -55 -462 -62
l-253 -6 0 -203 0 -202 288 -5 c253 -4 297 -7 371 -26 222 -57 375 -169 456
-334 49 -102 66 -174 72 -312 17 -392 -154 -652 -487 -739 -88 -23 -305 -32
-410 -17 -162 24 -300 91 -405 195 -104 104 -156 218 -177 384 l-12 92 -249 0
-250 0 6 -92 c21 -346 197 -629 506 -817 216 -131 476 -189 801 -178 363 12
631 114 851 324 164 157 252 315 306 548 14 63 18 121 18 270 0 167 -3 200
-23 274 -85 312 -297 530 -626 645 -16 5 -7 13 43 36 256 121 474 389 535 658
19 83 21 263 5 378 -25 180 -109 386 -209 511 -58 72 -174 173 -253 221 -131
79 -316 140 -492 161 -102 12 -338 13 -433 0z"/>
<path d="M5185 4545 c-357 -135 -680 -257 -717 -271 l-68 -26 0 -224 c0 -130
4 -224 9 -224 5 0 222 78 483 174 260 95 483 177 496 180 l22 7 0 -1665 0
-1666 250 0 250 0 0 1980 0 1980 -37 0 c-24 -1 -273 -89 -688 -245z"/>
</g>
</svg>
